PathFileType	4	(X/Y/Z)	C:\Users\86182\Documents\cortex\Trimmed_M3_H16.trc
DataRate	CameraRate	NumFrames	NumMarkers	Units	OrigDataRate	OrigDataStartFrame	OrigNumFrames
100.00	100.00	       98	2	mm	100.00	721	       901
Frame#	Time	gripper			box			
		X1	Y1	Z1	X2	Y2	Z2	

721	7.200	267.71848	173.10393	292.08435	268.43030	171.24178	155.95749	
722	7.210	267.71951	173.10307	292.08408	268.43362	171.24275	155.95753	
723	7.220	267.72058	173.10202	292.08368	268.43686	171.24495	155.95667	
724	7.230	267.72174	173.10085	292.08331	268.43951	171.24779	155.95483	
725	7.240	267.72284	173.09973	292.08316	268.44135	171.25075	155.95235	
726	7.250	267.72385	173.09882	292.08319	268.44214	171.25331	155.94974	
727	7.260	267.72461	173.09821	292.08353	268.44174	171.25493	155.94768	
728	7.270	267.72510	173.09796	292.08411	268.44006	171.25511	155.94664	
729	7.280	267.72519	173.09808	292.08478	268.43741	171.25369	155.94678	
730	7.290	267.72461	173.09860	292.08527	268.43408	171.25093	155.94792	
731	7.300	267.72327	173.09953	292.08533	268.43036	171.24750	155.94966	
732	7.310	267.72113	173.10077	292.08487	268.42657	171.24437	155.95143	
733	7.320	267.71848	173.10213	292.08398	268.42328	171.24217	155.95279	
734	7.330	267.71564	173.10338	292.08286	268.42093	171.24104	155.95360	
735	7.340	267.71320	173.10426	292.08160	268.41977	171.24086	155.95384	
736	7.350	267.71167	173.10463	292.08041	268.42007	171.24158	155.95354	
737	7.360	267.71115	173.10451	292.07944	268.42197	171.24304	155.95271	
738	7.370	267.71146	173.10411	292.07880	268.42526	171.24481	155.95166	
739	7.380	267.71231	173.10368	292.07867	268.42947	171.24634	155.95070	
740	7.390	267.71353	173.10335	292.07907	268.43402	171.24731	155.95004	
741	7.400	267.71506	173.10312	292.07986	268.43845	171.24782	155.94969	
742	7.410	267.71661	173.10304	292.08087	268.44254	171.24814	155.94948	
743	7.420	267.71793	173.10312	292.08194	268.44626	171.24847	155.94923	
744	7.430	267.71890	173.10332	292.08289	268.44934	171.24872	155.94896	
745	7.440	267.71948	173.10350	292.08356	268.45126	171.24870	155.94875	
746	7.450	267.71979	173.10350	292.08383	268.45145	171.24841	155.94872	
747	7.460	267.71994	173.10329	292.08374	268.44971	171.24797	155.94893	
748	7.470	267.72006	173.10291	292.08350	268.44647	171.24750	155.94934	
749	7.480	267.72031	173.10248	292.08331	268.44244	171.24707	155.94989	
750	7.490	267.72055	173.10210	292.08325	268.43829	171.24686	155.95042	
751	7.500	267.72073	173.10173	292.08307	268.43448	171.24701	155.95081	
752	7.510	267.72067	173.10132	292.08252	268.43127	171.24762	155.95097	
753	7.520	267.72018	173.10092	292.08154	268.42889	171.24883	155.95090	
754	7.530	267.71933	173.10065	292.08026	268.42749	171.25085	155.95038	
755	7.540	267.71835	173.10052	292.07904	268.42731	171.25374	155.94928	
756	7.550	267.71753	173.10046	292.07806	268.42825	171.25705	155.94766	
757	7.560	267.71707	173.10037	292.07748	268.42999	171.25989	155.94595	
758	7.570	267.71713	173.10013	292.07733	268.43201	171.26144	155.94475	
759	7.580	267.71768	173.09970	292.07758	268.43384	171.26140	155.94449	
760	7.590	267.71860	173.09909	292.07819	268.43558	171.25999	155.94528	
761	7.600	267.71979	173.09833	292.07904	268.43753	171.25752	155.94702	
762	7.610	267.72110	173.09755	292.08002	268.43979	171.25435	155.94946	
763	7.620	267.72220	173.09692	292.08093	268.44196	171.25096	155.95226	
764	7.630	267.72290	173.09663	292.08167	268.44351	171.24805	155.95491	
765	7.640	267.72314	173.09669	292.08218	268.44403	171.24631	155.95708	
766	7.650	267.72296	173.09708	292.08264	268.44379	171.24612	155.95834	
767	7.660	267.72241	173.09776	292.08298	268.44363	171.24733	155.95830	
768	7.670	267.72141	173.09868	292.08313	268.44415	171.24931	155.95685	
769	7.680	267.72006	173.09967	292.08295	268.44537	171.25140	155.95444	
770	7.690	267.71854	173.10054	292.08246	268.44702	171.25299	155.95189	
771	7.700	267.71707	173.10126	292.08179	268.44879	171.25339	155.95007	
772	7.710	267.71597	173.10182	292.08105	268.45050	171.25223	155.94952	
773	7.720	267.71542	173.10216	292.08038	268.45166	171.24983	155.95023	
774	7.730	267.71536	173.10233	292.07990	268.45172	171.24715	155.95175	
775	7.740	267.71548	173.10237	292.07953	268.45016	171.24492	155.95367	
776	7.750	267.71573	173.10236	292.07935	268.44736	171.24341	155.95573	
777	7.760	267.71609	173.10231	292.07935	268.44452	171.24248	155.95772	
778	7.770	267.71667	173.10219	292.07959	268.44263	171.24171	155.95941	
779	7.780	267.71753	173.10197	292.08002	268.44199	171.24074	155.96080	
780	7.790	267.71854	173.10159	292.08044	268.44229	171.23959	155.96208	
781	7.800	267.71951	173.10107	292.08069	268.44339	171.23863	155.96347	
782	7.810	267.72040	173.10046	292.08084	268.44516	171.23822	155.96497	
783	7.820	267.72116	173.09988	292.08099	268.44739	171.23840	155.96638	
784	7.830	267.72180	173.09944	292.08124	268.44965	171.23907	155.96738	
785	7.840	267.72226	173.09927	292.08154	268.45120	171.24008	155.96756	
786	7.850	267.72241	173.09940	292.08176	268.45181	171.24118	155.96677	
787	7.860	267.72220	173.09976	292.08185	268.45175	171.24222	155.96507	
788	7.870	267.72159	173.10027	292.08179	268.45142	171.24330	155.96278	
789	7.880	267.72067	173.10083	292.08154	268.45090	171.24478	155.96002	
790	7.890	267.71973	173.10139	292.08130	268.45023	171.24693	155.95688	
791	7.900	267.71906	173.10190	292.08124	268.44955	171.24965	155.95377	
792	7.910	267.71878	173.10226	292.08142	268.44885	171.25252	155.95113	
793	7.920	267.71884	173.10245	292.08167	268.44800	171.25496	155.94933	
794	7.930	267.71899	173.10239	292.08167	268.44708	171.25641	155.94849	
795	7.940	267.71918	173.10207	292.08139	268.44638	171.25650	155.94847	
796	7.950	267.71936	173.10158	292.08093	268.44614	171.25531	155.94902	
797	7.960	267.71967	173.10101	292.08047	268.44672	171.25337	155.94978	
798	7.970	267.72006	173.10042	292.08020	268.44833	171.25124	155.95039	
799	7.980	267.72055	173.09982	292.08005	268.45093	171.24924	155.95067	
800	7.990	267.72101	173.09929	292.08008	268.45413	171.24756	155.95071	
801	8.000	267.72150	173.09888	292.08029	268.45752	171.24632	155.95067	
802	8.010	267.72189	173.09863	292.08075	268.46085	171.24565	155.95056	
803	8.020	267.72220	173.09862	292.08136	268.46387	171.24568	155.95033	
804	8.030	267.72229	173.09880	292.08203	268.46622	171.24637	155.94994	
805	8.040	267.72211	173.09921	292.08258	268.46774	171.24733	155.94962	
806	8.050	267.72156	173.09982	292.08289	268.46823	171.24820	155.94962	
807	8.060	267.72067	173.10057	292.08289	268.46750	171.24884	155.94998	
808	8.070	267.71964	173.10133	292.08270	268.46558	171.24940	155.95055	
809	8.080	267.71866	173.10202	292.08246	268.46271	171.24998	155.95097	
810	8.090	267.71774	173.10254	292.08206	268.45932	171.25070	155.95100	
811	8.100	267.71686	173.10286	292.08154	268.45572	171.25156	155.95074	
812	8.110	267.71597	173.10306	292.08096	268.45224	171.25235	155.95041	
813	8.120	267.71515	173.10313	292.08038	268.44928	171.25272	155.95023	
814	8.130	267.71448	173.10313	292.07983	268.44739	171.25241	155.95030	
815	8.140	267.71405	173.10304	292.07941	268.44705	171.25148	155.95065	
816	8.150	267.71399	173.10283	292.07922	268.44870	171.25002	155.95132	
817	8.160	267.71445	173.10245	292.07925	268.45224	171.24817	155.95218	
818	8.170	267.71545	173.10188	292.07959	268.45697	171.24623	155.95302	
